<svg width="40" height="40" fill="none" xmlns="http://www.w3.org/2000/svg"><path d="M21.075 22.772h5.045c1.435 0 2.344-.79 2.344-2.058 0-1.197-.909-2.058-2.344-2.058h-5.045c-.168 0-.311.144-.311.287v3.542c.024.167.143.287.31.287ZM21.075 30.931h5.213c1.602 0 2.558-.813 2.558-2.249 0-1.244-.908-2.25-2.558-2.25h-5.213c-.168 0-.311.144-.311.288v3.9c.024.192.143.311.31.311Z" fill="#313440"/><path d="M39.536.088 24.614 14.97h2.439c3.802 0 6.05 2.393 6.05 5.001 0 2.058-1.387 3.566-2.87 4.235-.239.096-.239.431.024.527 1.722.67 2.942 2.464 2.942 4.57 0 2.967-1.985 5.336-5.835 5.336h-10.57c-.167 0-.31-.144-.31-.287v-11.27L.102 39.402c-.215.215-.072.598.239.598h39.385c.144 0 .263-.12.263-.263V.303c.072-.263-.263-.407-.454-.215Z" fill="#313440"/></svg>