<svg width="144" height="32" viewBox="0 0 144 32" fill="none" xmlns="http://www.w3.org/2000/svg">
<path d="M39.6198 15.4943C41.8094 15.4943 43.2792 16.4704 44.179 17.6832V0.408411C44.179 0.083029 43.7891 -0.124032 43.5191 0.0830295L21.8931 15.6718H22.463C24.7126 15.6718 25.8524 17.0916 25.8524 18.6298C25.8524 19.8426 25.2225 20.73 24.3527 21.1145C24.2027 21.1737 24.2027 21.3807 24.3527 21.4399C25.3425 21.854 26.0623 22.8893 26.0623 24.1317C26.0623 25.9065 24.8926 27.2968 22.643 27.2968H16.4941C16.3741 27.2968 16.2541 27.208 16.2541 27.0601V19.7242L0.147107 31.3492C-0.122844 31.5859 -0.00286679 32 0.357067 32H43.7891C43.999 32 44.149 31.8521 44.149 31.645V25.7586C42.9792 26.8235 41.4495 27.5038 39.5899 27.5038C36.1105 27.5038 33.291 25.1374 33.291 21.4991C33.321 17.8311 36.1705 15.4943 39.6198 15.4943ZM31.0114 27.0897C31.0114 27.208 30.9214 27.2968 30.8015 27.2968H28.7318C28.6119 27.2968 28.5219 27.208 28.5219 27.0897V15.8788C28.5219 15.7605 28.6119 15.6718 28.7318 15.6718H30.8015C30.9214 15.6718 31.0114 15.7605 31.0114 15.8788V27.0897Z" fill="#121118"/>
<path d="M123.424 21.4399C123.424 17.8607 126.034 15.4352 129.393 15.4352C131.583 15.4352 132.992 16.5296 133.832 17.8607C133.892 17.9495 133.862 18.0974 133.742 18.1269L132.393 18.8369C132.303 18.896 132.183 18.8664 132.153 18.7777C131.583 17.8903 130.533 17.2395 129.393 17.2395C127.144 17.2395 125.464 18.9848 125.464 21.4399C125.464 23.8655 127.144 25.6403 129.393 25.6403C130.533 25.6403 131.583 24.9895 132.153 24.1021C132.213 24.0134 132.303 23.9838 132.393 24.043L133.742 24.7233C133.862 24.7825 133.892 24.9008 133.832 25.0191C132.962 26.3502 131.553 27.4743 129.393 27.4743C126.034 27.4447 123.424 25.0191 123.424 21.4399Z" fill="#121118"/>
<path d="M46.0382 21.499C46.0382 17.9198 48.6478 15.4943 52.0071 15.4943C54.1967 15.4943 55.6065 16.5887 56.4463 17.9198C56.5063 18.0086 56.4763 18.1565 56.3563 18.1861L55.0066 18.896C54.9166 18.9551 54.7966 18.9256 54.7666 18.8368C54.1967 17.9494 53.1469 17.2987 52.0071 17.2987C49.7576 17.2987 48.0779 19.0439 48.0779 21.499C48.0779 23.9246 49.7576 25.6994 52.0071 25.6994C53.1469 25.6994 54.1967 25.0487 54.7666 24.1612C54.8266 24.0725 54.9166 24.0429 55.0066 24.1021L56.3563 24.7824C56.4763 24.8416 56.5063 24.9599 56.4463 25.0782C55.5765 26.4093 54.1668 27.5334 52.0071 27.5334C48.6478 27.5038 46.0382 25.0487 46.0382 21.499Z" fill="#121118"/>
<path d="M39.6199 17.6832C40.7597 17.6832 41.7195 18.2748 42.2894 19.0143C42.3494 19.1031 42.4994 19.1622 42.6194 19.1327L44.2091 18.2748V20.9075H39.26C39.14 20.9075 39.02 20.9962 39.02 21.1441V22.8006C39.02 22.9189 39.11 23.0372 39.26 23.0372H41.9295C42.0195 23.0372 42.1095 23.126 42.1095 23.2147V24.3388C42.1095 24.3979 42.0795 24.4571 42.0495 24.4867C41.5396 24.9008 40.6097 25.3149 39.6199 25.3149C37.4603 25.3149 35.9006 23.688 35.9006 21.4991C35.9006 19.3101 37.4603 17.6832 39.6199 17.6832Z" fill="#121118"/>
<path d="M19.0131 20.2863H21.9226C22.7624 20.2863 23.3023 19.813 23.3023 19.0735C23.3023 18.3636 22.7624 17.8607 21.9226 17.8607H18.8931C18.8332 17.8607 18.7732 17.9199 18.7732 17.979V20.0792C18.7732 20.1975 18.8931 20.2863 19.0131 20.2863Z" fill="#121118"/>
<path d="M19.0131 25.1374H22.0426C22.9724 25.1374 23.5423 24.6346 23.5423 23.8063C23.5423 23.0668 23.0024 22.4752 22.0426 22.4752H19.0131C18.8931 22.4752 18.7732 22.564 18.7732 22.7119V24.9008C18.7732 25.0191 18.8931 25.1374 19.0131 25.1374Z" fill="#121118"/>
<path fill-rule="evenodd" clip-rule="evenodd" d="M61.8156 15.7014C59.2961 16.3522 57.6164 18.6003 57.6164 21.4991C57.6164 24.96 60.016 27.5039 63.4353 27.5334C66.3448 27.5334 68.5344 25.6699 69.1043 22.9485C70.0341 18.5411 66.1048 14.5773 61.8156 15.7014ZM63.4053 17.2987C65.6849 17.2987 67.1846 19.1031 67.1846 21.4991C67.1846 23.8655 65.7149 25.6995 63.4053 25.6995C61.0957 25.6995 59.626 23.8951 59.626 21.4991C59.626 19.1031 61.0957 17.2987 63.4053 17.2987Z" fill="#121118"/>
<path d="M81.4618 27.1489V18.3044L77.8924 27.2081C77.8924 27.2376 77.8325 27.2672 77.8025 27.2672H77.0526C77.0226 27.2672 76.9626 27.2376 76.9626 27.2081L73.3633 18.3044V27.1489C73.3633 27.2376 73.3033 27.2968 73.2133 27.2968H71.4136C71.3237 27.2968 71.2637 27.2376 71.2637 27.1489V15.7901C71.2637 15.7014 71.3237 15.6422 71.4136 15.6422H73.9932C74.1131 15.6422 74.2031 15.7014 74.2631 15.8197L77.4125 23.8063L80.532 15.8197C80.562 15.7014 80.6819 15.6422 80.8019 15.6422H83.3814C83.4714 15.6422 83.5314 15.7014 83.5314 15.7901V27.1489C83.5314 27.2376 83.4714 27.2968 83.3814 27.2968H81.5818C81.5518 27.2968 81.4618 27.2376 81.4618 27.1489Z" fill="#121118"/>
<path d="M101.858 15.8789V27.0898C101.858 27.2081 101.948 27.2968 102.068 27.2081H109.717C109.837 27.2081 109.927 27.1193 109.927 27.001V25.6403C109.927 25.522 109.837 25.4333 109.717 25.4333H104.138C104.018 25.4333 103.928 25.3445 103.928 25.2262V22.4161C103.928 22.2978 104.018 22.209 104.138 22.209H109.597C109.717 22.209 109.807 22.1203 109.807 22.002V20.6413C109.807 20.523 109.717 20.4342 109.597 20.4342H104.138C104.018 20.4342 103.928 20.3455 103.928 20.2272V17.6537C103.928 17.5354 104.018 17.4466 104.138 17.4466H109.717C109.837 17.4466 109.927 17.3579 109.927 17.2396V15.8789C109.927 15.7606 109.837 15.6718 109.717 15.6718H102.068C101.948 15.6718 101.858 15.7606 101.858 15.8789Z" fill="#121118"/>
<path fill-rule="evenodd" clip-rule="evenodd" d="M119.525 27.1785L117.035 23.0373C117.005 22.9781 116.915 22.9485 116.855 22.9485H115.116C114.996 22.9485 114.906 23.0373 114.906 23.1556V27.0897C114.906 27.2081 114.816 27.2968 114.696 27.2968H113.076C112.956 27.2968 112.866 27.2081 112.866 27.0897V15.8789C112.866 15.7606 112.956 15.6718 113.076 15.6718H118.055C120.395 15.6718 121.924 17.1508 121.924 19.3102C121.924 21.2329 120.724 22.3273 119.405 22.6527C119.255 22.6823 119.195 22.8302 119.255 22.9781C119.735 23.7472 121.234 26.1136 121.804 26.9714C121.894 27.1193 121.804 27.2968 121.624 27.2968H119.735C119.645 27.2968 119.585 27.2672 119.525 27.1785ZM119.795 19.2806C119.795 18.1565 118.955 17.4466 117.785 17.4466H115.145C115.026 17.4466 114.936 17.5354 114.936 17.6537V20.9371C114.936 21.0554 115.026 21.1441 115.145 21.1441H117.785C118.955 21.1441 119.795 20.4342 119.795 19.2806Z" fill="#121118"/>
<path d="M135.901 15.8789V27.0897C135.901 27.2081 135.991 27.2968 136.111 27.356H143.79C143.91 27.356 144 27.2672 144 27.1489V25.7586C144 25.6403 143.91 25.5516 143.79 25.5516H138.181C138.061 25.5516 137.971 25.4628 137.971 25.3445V22.5048C137.971 22.3865 138.061 22.2978 138.181 22.2978H143.64C143.76 22.2978 143.85 22.209 143.85 22.0907V20.7004C143.85 20.5821 143.76 20.4934 143.64 20.4934H138.181C138.061 20.4934 137.971 20.4046 137.971 20.2863V17.6833C137.971 17.5649 138.061 17.4762 138.181 17.4762H143.79C143.91 17.4762 144 17.3875 144 17.2691V15.8789C144 15.7606 143.91 15.6718 143.79 15.6718H136.111C135.991 15.6718 135.901 15.7606 135.901 15.8789Z" fill="#121118"/>
<path d="M96.7587 18.3044V27.1489C96.7587 27.2376 96.8187 27.2968 96.8787 27.2968H98.6783C98.7683 27.2968 98.8283 27.2376 98.8283 27.1489V15.7901C98.8283 15.7014 98.7683 15.6422 98.6783 15.6422H96.0988C95.9788 15.6422 95.8589 15.7014 95.8289 15.8197L92.7094 23.8063L89.56 15.8197C89.5 15.7014 89.41 15.6422 89.2901 15.6422H86.7105C86.6206 15.6422 86.5606 15.7014 86.5606 15.7901V27.1489C86.5606 27.2376 86.6206 27.2968 86.7105 27.2968H88.5102C88.6002 27.2968 88.6602 27.2376 88.6602 27.1489V18.3044L92.2595 27.2081C92.2595 27.2376 92.3195 27.2672 92.3495 27.2672H93.0994C93.1294 27.2672 93.1894 27.2376 93.1894 27.2081L96.7587 18.3044Z" fill="#121118"/>
</svg>
