<svg width="33" height="32" viewBox="0 0 33 32" fill="none" xmlns="http://www.w3.org/2000/svg">
<path d="M16.8702 18.2174H20.9093C22.0578 18.2174 22.7852 17.5857 22.7852 16.5712C22.7852 15.614 22.0578 14.9249 20.9093 14.9249H16.8702C16.7362 14.9249 16.6214 15.0398 16.6214 15.1546V17.9877C16.6405 18.1217 16.7362 18.2174 16.8702 18.2174Z" fill="#121118"/>
<path d="M16.8702 24.745H21.0433C22.3258 24.745 23.0915 24.0941 23.0915 22.9456C23.0915 21.9502 22.3641 21.1462 21.0433 21.1462H16.8702C16.7362 21.1462 16.6214 21.2611 16.6214 21.3759V24.4961C16.6405 24.6493 16.7362 24.745 16.8702 24.745Z" fill="#121118"/>
<path d="M31.6482 0.0703338L19.7033 11.977H21.6558C24.6995 11.977 26.4989 13.8912 26.4989 15.9777C26.4989 17.624 25.3886 18.83 24.2018 19.366C24.0104 19.4425 24.0104 19.7105 24.2209 19.7871C25.5992 20.3231 26.5755 21.7588 26.5755 23.4433C26.5755 25.817 24.9866 27.7121 21.9047 27.7121H13.4437C13.3097 27.7121 13.1949 27.5972 13.1949 27.4824V18.4663L0.0822561 31.5214C-0.0900262 31.6937 0.0248287 32 0.273681 32H31.8013C31.9162 32 32.0119 31.9043 32.0119 31.7894V0.242615C32.0693 0.0320477 31.8014 -0.0828061 31.6482 0.0703338Z" fill="#121118"/>
</svg>
