<svg width="60" height="61" viewBox="0 0 60 61" fill="none" xmlns="http://www.w3.org/2000/svg">
<path fill-rule="evenodd" clip-rule="evenodd" d="M0.037648 55.8691C-0.0393101 55.6844 0.00396314 55.4714 0.146907 55.3314L55.202 0.381162C55.3219 0.260797 55.5027 0.224719 55.6596 0.289802C55.6901 0.302456 55.7186 0.318447 55.7446 0.337248L55.8163 0.265949C57.011 1.66203 59.7413 4.22651 59.7413 4.22651C59.7497 4.23621 59.7585 4.24612 59.7675 4.25625L59.7687 4.25762C59.8715 4.37367 60 4.51876 60 4.71694V59.7399C59.9911 59.9387 59.8319 60.0979 59.6331 60.1068H4.57801C4.31795 60.1068 4.16812 59.9501 4.06637 59.8436C4.05376 59.8304 4.04188 59.818 4.03063 59.8068C4.02007 59.7962 3.96756 59.7456 3.88204 59.6633L3.8798 59.6611C3.29263 59.0956 1.17383 57.0551 0.364595 56.154C0.219555 56.1158 0.097224 56.012 0.037648 55.8691ZM54.7591 2.3161V54.866H2.10902L23.3674 33.6481V48.5039C23.3673 48.6136 23.412 48.7186 23.4912 48.7945C23.5704 48.8703 23.6772 48.9106 23.7867 48.9058H38.5333C43.8973 48.9058 46.6754 45.621 46.6754 41.4452C46.7227 38.6795 45.0934 36.1596 42.5519 35.0678C42.4072 35.0031 42.314 34.8594 42.314 34.7009C42.314 34.5423 42.4072 34.3986 42.5519 34.3339C44.9284 33.3204 46.4929 31.0112 46.5531 28.4283C46.5531 24.7766 43.3382 21.4394 38.0965 21.4394H35.5993L54.7591 2.3161ZM29.9298 27.0982H36.6736C37.5179 27.0982 38.1633 27.2576 38.6742 27.6867C39.2056 28.133 39.5112 28.7694 39.5155 29.4386C39.5152 30.2182 39.2502 30.7873 38.8039 31.1662C38.3508 31.551 37.6489 31.7921 36.6736 31.7921H29.8216V27.2061L29.9298 27.0982ZM37.0308 43.2409H29.8358V37.9888H37.0308C37.9175 37.9888 38.5952 38.1671 39.1317 38.6472C39.6897 39.1467 40.0106 39.8587 40.0151 40.6075C40.0148 41.4799 39.7365 42.1166 39.2679 42.5406C38.792 42.9712 38.055 43.2409 37.0308 43.2409Z" fill="#111827"/>
</svg>
