<svg width="24" height="24" fill="none" xmlns="http://www.w3.org/2000/svg"><g clip-path="url(#a)"><g clip-path="url(#b)"><path d="M21.001 12.393c0-.624-.05-1.252-.159-1.866h-8.66v3.536h4.96a4.25 4.25 0 0 1-1.836 2.79v2.295h2.959c1.737-1.6 2.736-3.961 2.736-6.755Z" fill="#4285F4"/><path d="M12.18 21.365c2.476 0 4.565-.813 6.087-2.217l-2.96-2.294c-.823.56-1.885.877-3.124.877-2.395 0-4.426-1.616-5.155-3.79H3.975v2.366a9.183 9.183 0 0 0 8.205 5.058Z" fill="#34A853"/><path d="M7.027 13.942a5.5 5.5 0 0 1 0-3.516V8.061h-3.05a9.19 9.19 0 0 0 0 8.246l3.05-2.365Z" fill="#FBBC04"/><path d="M12.18 6.634a4.99 4.99 0 0 1 3.522 1.376l2.622-2.621A8.825 8.825 0 0 0 12.18 3a9.18 9.18 0 0 0-8.205 5.061l3.05 2.365c.725-2.176 2.76-3.792 5.155-3.792Z" fill="#EA4335"/></g></g><defs><clipPath id="a"><rect width="24" height="24" rx="2" fill="#fff"/></clipPath><clipPath id="b"><path fill="#fff" transform="translate(3 3)" d="M0 0h18v18.364H0z"/></clipPath></defs></svg>